<svg width="17" height="37" viewBox="0 0 17 37" fill="none" xmlns="http://www.w3.org/2000/svg">
<path d="M5.33316 25.6672V25.0164L4.73809 24.7529C4.06934 24.4567 3.79581 24.047 3.64937 23.4714C3.49514 22.8652 3.4969 22.1423 3.49923 21.1857C3.49952 21.0651 3.49982 20.9408 3.49982 20.8125V14.6458C3.49982 13.2561 3.7652 12.1432 4.28053 11.4041C4.75405 10.725 5.51381 10.25 6.83316 10.25H10.1665C10.8462 10.25 11.3171 10.3776 11.6502 10.5561C11.9763 10.7309 12.2248 10.9833 12.4205 11.3269C12.8388 12.0616 13 13.1813 13 14.6458V20.8125C13 21.2836 13.0286 21.7456 13.0537 22.1529C13.0592 22.2419 13.0646 22.3282 13.0694 22.4115C13.0978 22.8995 13.1095 23.2846 13.075 23.6134C13.0415 23.9321 12.9693 24.1401 12.8689 24.292C12.7741 24.4354 12.6076 24.5996 12.2616 24.7529L11.6665 25.0164V25.6672V35.4583C11.6665 35.6851 11.4424 36 10.9998 36C10.5573 36 10.3332 35.6851 10.3332 35.4583V26.2083V25.2083H9.33316H7.66649H6.66649V26.2083V35.4583C6.66649 35.6851 6.44238 36 5.99983 36C5.55727 36 5.33316 35.6851 5.33316 35.4583V25.6672ZM5.33316 3.85417C5.33316 2.34939 6.6756 1 8.49983 1C10.324 1 11.6665 2.34939 11.6665 3.85417C11.6665 5.35894 10.324 6.70833 8.49983 6.70833C6.6756 6.70833 5.33316 5.35894 5.33316 3.85417Z" stroke="black" stroke-width="2"/>
<path d="M4 11.0996L1 16.1871" stroke="black" stroke-width="2" stroke-linecap="round"/>
<path d="M13 11.0996L16 16.1871" stroke="black" stroke-width="2" stroke-linecap="round"/>
</svg>
