<svg width="38" height="38" viewBox="0 0 38 38" fill="none" xmlns="http://www.w3.org/2000/svg">
<path d="M13.6563 20.7812C13.304 20.7812 12.9596 20.6768 12.6666 20.4811C12.3737 20.2853 12.1454 20.0071 12.0106 19.6817C11.8758 19.3562 11.8405 18.998 11.9092 18.6525C11.978 18.307 12.1476 17.9896 12.3967 17.7405C12.6458 17.4914 12.9632 17.3217 13.3088 17.253C13.6543 17.1842 14.0124 17.2195 14.3379 17.3543C14.6634 17.4892 14.9416 17.7175 15.1373 18.0104C15.333 18.3033 15.4375 18.6477 15.4375 19C15.4375 19.4724 15.2498 19.9255 14.9158 20.2595C14.5817 20.5936 14.1287 20.7812 13.6563 20.7812ZM24.3438 17.2188C23.9915 17.2188 23.6471 17.3232 23.3541 17.5189C23.0612 17.7147 22.8329 17.9929 22.6981 18.3183C22.5633 18.6438 22.528 19.002 22.5967 19.3475C22.6655 19.693 22.8351 20.0104 23.0842 20.2595C23.3333 20.5086 23.6507 20.6783 23.9963 20.747C24.3418 20.8158 24.6999 20.7805 25.0254 20.6457C25.3509 20.5108 25.6291 20.2825 25.8248 19.9896C26.0205 19.6967 26.125 19.3523 26.125 19C26.125 18.5276 25.9373 18.0745 25.6033 17.7405C25.2692 17.4064 24.8162 17.2188 24.3438 17.2188ZM22.5224 23.9326C21.4648 24.589 20.2448 24.9368 19 24.9368C17.7552 24.9368 16.5352 24.589 15.4776 23.9326C15.2111 23.7645 14.8887 23.7091 14.5814 23.7787C14.274 23.8483 14.0069 24.0371 13.8388 24.3037C13.6707 24.5702 13.6154 24.8926 13.685 25.1999C13.7546 25.5072 13.9434 25.7743 14.2099 25.9424C15.647 26.8383 17.3065 27.3132 19 27.3132C20.6935 27.3132 22.353 26.8383 23.7901 25.9424C24.0566 25.7743 24.2454 25.5072 24.315 25.1999C24.3846 24.8926 24.3293 24.5702 24.1612 24.3037C23.9931 24.0371 23.726 23.8483 23.4187 23.7787C23.1113 23.7091 22.7889 23.7645 22.5224 23.9326ZM34.4375 19C34.4375 22.0532 33.5321 25.0379 31.8358 27.5766C30.1395 30.1153 27.7285 32.094 24.9077 33.2624C22.0868 34.4308 18.9829 34.7365 15.9883 34.1409C12.9937 33.5452 10.243 32.0749 8.08405 29.916C5.92507 27.757 4.45479 25.0063 3.85913 22.0117C3.26347 19.0171 3.56919 15.9132 4.73762 13.0923C5.90604 10.2715 7.88471 7.86048 10.4234 6.16419C12.9621 4.46789 15.9468 3.5625 19 3.5625C23.093 3.56682 27.017 5.19466 29.9112 8.08881C32.8053 10.983 34.4332 14.907 34.4375 19ZM32.0625 19C32.0584 15.6374 30.7592 12.4055 28.4349 9.97556C26.1105 7.54561 22.9395 6.10428 19.5804 5.95086C17.86 8.36891 17.8125 10.6697 17.8125 10.6875C17.8125 11.0024 17.9376 11.3045 18.1603 11.5272C18.383 11.7499 18.6851 11.875 19 11.875C19.315 11.875 19.617 11.7499 19.8397 11.5272C20.0624 11.3045 20.1875 11.0024 20.1875 10.6875C20.1875 10.3726 20.3126 10.0705 20.5353 9.84781C20.758 9.62511 21.0601 9.5 21.375 9.5C21.69 9.5 21.992 9.62511 22.2147 9.84781C22.4374 10.0705 22.5625 10.3726 22.5625 10.6875C22.5625 11.6323 22.1872 12.5385 21.5191 13.2066C20.851 13.8747 19.9448 14.25 19 14.25C18.0552 14.25 17.149 13.8747 16.4809 13.2066C15.8128 12.5385 15.4375 11.6323 15.4375 10.6875C15.4375 10.5791 15.4568 8.56484 16.6933 6.14086C14.2476 6.57965 11.9777 7.7069 10.1501 9.39034C8.32253 11.0738 7.01299 13.2436 6.37518 15.6451C5.73736 18.0466 5.79774 20.5802 6.54922 22.9486C7.3007 25.317 8.71211 27.422 10.6178 29.0164C12.5235 30.6109 14.8445 31.6288 17.3083 31.9506C19.7722 32.2724 22.2767 31.8847 24.528 30.8332C26.7793 29.7817 28.684 28.1098 30.0185 26.0139C31.3531 23.9179 32.0621 21.4848 32.0625 19Z" fill="black"/>
</svg>
