<svg width="38" height="38" viewBox="0 0 38 38" fill="none" xmlns="http://www.w3.org/2000/svg">
<path d="M30.875 14.2499C30.875 11.9518 30.2082 9.7032 28.9555 7.77664C27.7028 5.85009 25.918 4.3284 23.8175 3.39612C21.7171 2.46384 19.3913 2.16103 17.1222 2.52441C14.8531 2.88779 12.7382 3.90175 11.034 5.44332C9.32971 6.98489 8.10936 8.98783 7.52092 11.2092C6.93248 13.4306 7.00122 15.7751 7.71881 17.9582C8.4364 20.1413 9.77201 22.0693 11.5637 23.5083C13.3553 24.9474 15.526 25.8357 17.8125 26.0655V29.6874H13.0625C12.7476 29.6874 12.4455 29.8125 12.2228 30.0352C12.0001 30.2579 11.875 30.5599 11.875 30.8749C11.875 31.1898 12.0001 31.4918 12.2228 31.7145C12.4455 31.9372 12.7476 32.0624 13.0625 32.0624H17.8125V35.6249C17.8125 35.9398 17.9376 36.2418 18.1603 36.4645C18.383 36.6872 18.6851 36.8124 19 36.8124C19.3149 36.8124 19.617 36.6872 19.8397 36.4645C20.0624 36.2418 20.1875 35.9398 20.1875 35.6249V32.0624H24.9375C25.2524 32.0624 25.5545 31.9372 25.7772 31.7145C25.9999 31.4918 26.125 31.1898 26.125 30.8749C26.125 30.5599 25.9999 30.2579 25.7772 30.0352C25.5545 29.8125 25.2524 29.6874 24.9375 29.6874H20.1875V26.0655C23.1152 25.7676 25.8285 24.3946 27.8026 22.2121C29.7767 20.0297 30.8714 17.1927 30.875 14.2499ZM9.5 14.2499C9.5 12.3709 10.0572 10.5342 11.101 8.97194C12.1449 7.40967 13.6286 6.19203 15.3645 5.473C17.1004 4.75397 19.0105 4.56584 20.8534 4.9324C22.6962 5.29896 24.3889 6.20374 25.7175 7.53234C27.0461 8.86094 27.9509 10.5537 28.3175 12.3965C28.684 14.2393 28.4959 16.1495 27.7769 17.8853C27.0578 19.6212 25.8402 21.1049 24.2779 22.1488C22.7156 23.1927 20.8789 23.7499 19 23.7499C16.4813 23.7471 14.0665 22.7453 12.2855 20.9643C10.5045 19.1833 9.50275 16.7686 9.5 14.2499Z" fill="black"/>
</svg>
