<svg width="38" height="38" viewBox="0 0 38 38" fill="none" xmlns="http://www.w3.org/2000/svg">
<path d="M32.0621 4.75H24.9371C24.6221 4.75 24.3201 4.87511 24.0974 5.09781C23.8747 5.32051 23.7496 5.62256 23.7496 5.9375C23.7496 6.25244 23.8747 6.55449 24.0974 6.77719C24.3201 6.99989 24.6221 7.125 24.9371 7.125H29.1957L22.951 13.3698C20.5922 11.4417 17.5825 10.4939 14.5446 10.7225C11.5066 10.9511 8.67268 12.3385 6.62895 14.5979C4.58521 16.8572 3.48801 19.8156 3.56427 22.8613C3.64053 25.9069 4.88441 28.8067 7.03866 30.9609C9.1929 33.1151 12.0927 34.359 15.1383 34.4353C18.1839 34.5115 21.1423 33.4143 23.4017 31.3706C25.661 29.3269 27.0485 26.493 27.2771 23.455C27.5057 20.417 26.5579 17.4074 24.6298 15.0486L30.8746 8.80531V13.0625C30.8746 13.3774 30.9997 13.6795 31.2224 13.9022C31.4451 14.1249 31.7471 14.25 32.0621 14.25C32.377 14.25 32.6791 14.1249 32.9018 13.9022C33.1245 13.6795 33.2496 13.3774 33.2496 13.0625V5.9375C33.2496 5.62256 33.1245 5.32051 32.9018 5.09781C32.6791 4.87511 32.377 4.75 32.0621 4.75ZM22.1524 29.2852C20.8236 30.6134 19.1309 31.5178 17.2882 31.884C15.4455 32.2502 13.5355 32.0618 11.7999 31.3427C10.0642 30.6235 8.5808 29.4059 7.53711 27.8437C6.49343 26.2815 5.93637 24.445 5.93637 22.5662C5.93637 20.6875 6.49343 18.8509 7.53711 17.2887C8.5808 15.7266 10.0642 14.5089 11.7999 13.7898C13.5355 13.0706 15.4455 12.8822 17.2882 13.2484C19.1309 13.6147 20.8236 14.519 22.1524 15.8472C23.9313 17.6308 24.9302 20.0471 24.9302 22.5662C24.9302 25.0853 23.9313 27.5016 22.1524 29.2852Z" fill="black"/>
</svg>
