<svg width="16" height="42" viewBox="0 0 16 42" fill="none" xmlns="http://www.w3.org/2000/svg">
<path d="M3.5 4.375C3.5 1.95825 5.45825 0 7.875 0C10.2917 0 12.25 1.95825 12.25 4.375C12.25 6.79175 10.2917 8.75 7.875 8.75C5.45825 8.75 3.5 6.79175 3.5 4.375ZM15.75 15.75V29.75H12.25V42H8.75V29.75H7V42H3.5V29.75H0V15.75C0 12.8555 2.3555 10.5 5.25 10.5H10.5C13.3945 10.5 15.75 12.8555 15.75 15.75ZM12.25 15.75C12.25 14.7858 11.4642 14 10.5 14H5.25C4.28575 14 3.5 14.7858 3.5 15.75V26.25H12.25V15.75Z" fill="black"/>
</svg>
