<svg width="38" height="38" viewBox="0 0 38 38" fill="none" xmlns="http://www.w3.org/2000/svg">
<path d="M23.75 5.9375C23.75 4.99804 23.4715 4.07968 22.9495 3.29854C22.4276 2.51741 21.6857 1.90859 20.8178 1.54907C19.9498 1.18956 18.9948 1.09549 18.0734 1.27877C17.1519 1.46205 16.3056 1.91445 15.6413 2.57875C14.977 3.24304 14.5246 4.08941 14.3413 5.01082C14.158 5.93223 14.2521 6.8873 14.6116 7.75525C14.9711 8.6232 15.5799 9.36505 16.3611 9.88698C17.1422 10.4089 18.0606 10.6875 19 10.6875C20.2598 10.6875 21.468 10.1871 22.3588 9.29626C23.2496 8.40546 23.75 7.19728 23.75 5.9375ZM19 8.3125C18.5303 8.3125 18.0711 8.17321 17.6806 7.91224C17.29 7.65127 16.9856 7.28035 16.8058 6.84638C16.6261 6.4124 16.579 5.93487 16.6707 5.47416C16.7623 5.01346 16.9885 4.59027 17.3207 4.25812C17.6528 3.92597 18.076 3.69978 18.5367 3.60814C18.9974 3.5165 19.4749 3.56353 19.9089 3.74329C20.3429 3.92305 20.7138 4.22746 20.9748 4.61802C21.2357 5.00859 21.375 5.46777 21.375 5.9375C21.375 6.56739 21.1248 7.17148 20.6794 7.61688C20.234 8.06228 19.6299 8.3125 19 8.3125ZM32.4099 19.8981L25.705 12.2951C25.2592 11.7898 24.7109 11.3851 24.0967 11.1079C23.4825 10.8307 22.8163 10.6874 22.1425 10.6875H15.8576C15.1838 10.6874 14.5176 10.8307 13.9034 11.1079C13.2891 11.3851 12.7409 11.7898 12.2951 12.2951L5.59019 19.8981C5.04569 20.4549 4.74184 21.2035 4.74415 21.9824C4.74647 22.7612 5.05476 23.5079 5.60256 24.0616C6.15037 24.6152 6.8938 24.9314 7.67258 24.942C8.45136 24.9526 9.20311 24.6567 9.76574 24.1181L12.1853 22.1766L9.73012 31.5103C9.40494 32.2278 9.37809 33.0451 9.65549 33.7823C9.93289 34.5196 10.4918 35.1165 11.2093 35.4417C11.9268 35.7669 12.7441 35.7937 13.4813 35.5163C14.2186 35.2389 14.8155 34.68 15.1407 33.9625L19 27.3021L22.8594 33.9625C23.1991 34.6559 23.7956 35.1897 24.5224 35.4506C25.2491 35.7114 26.0489 35.6789 26.752 35.3599C27.4552 35.0408 28.0064 34.4604 28.2887 33.7417C28.5709 33.023 28.5621 32.2226 28.264 31.5103L25.8148 22.1766L28.2343 24.1181C28.797 24.6567 29.5487 24.9526 30.3275 24.942C31.1063 24.9314 31.8497 24.6152 32.3975 24.0616C32.9453 23.5079 33.2536 22.7612 33.2559 21.9824C33.2582 21.2035 32.9544 20.4549 32.4099 19.8981ZM30.7014 22.3873C30.6462 22.4426 30.5807 22.4863 30.5087 22.5162C30.4366 22.5461 30.3593 22.5615 30.2813 22.5615C30.2033 22.5615 30.126 22.5461 30.0539 22.5162C29.9818 22.4863 29.9164 22.4426 29.8612 22.3873C29.83 22.3577 29.7989 22.328 29.7647 22.3013L24.4922 18.0738C24.2976 17.9184 24.0592 17.8282 23.8105 17.8158C23.5618 17.8034 23.3155 17.8695 23.1065 18.0047C22.8974 18.1399 22.7361 18.3374 22.6455 18.5693C22.5548 18.8012 22.5393 19.0557 22.6011 19.2969L25.9974 32.2109C26.0149 32.2798 26.0387 32.3469 26.0686 32.4113C26.1029 32.4822 26.1227 32.5591 26.127 32.6377C26.1313 32.7162 26.1199 32.7949 26.0935 32.869C26.0671 32.9431 26.0263 33.0113 25.9733 33.0695C25.9203 33.1277 25.8563 33.1748 25.785 33.208C25.7137 33.2413 25.6365 33.26 25.5579 33.2632C25.4792 33.2663 25.4008 33.2538 25.327 33.2263C25.2533 33.1989 25.1857 33.1571 25.1283 33.1033C25.0709 33.0495 25.0247 32.9848 24.9925 32.913C24.9779 32.881 24.9616 32.8498 24.9435 32.8195L20.0272 24.3438C19.9228 24.1638 19.773 24.0144 19.5927 23.9106C19.4125 23.8068 19.2081 23.7521 19 23.7521C18.792 23.7521 18.5876 23.8068 18.4073 23.9106C18.2271 24.0144 18.0772 24.1638 17.9729 24.3438L13.0625 32.8121C13.0444 32.8423 13.0281 32.8736 13.0136 32.9056C12.9806 32.9764 12.934 33.0399 12.8764 33.0927C12.8188 33.1454 12.7515 33.1862 12.6781 33.2129C12.5677 33.2534 12.4477 33.2601 12.3334 33.2323C12.2192 33.2046 12.1157 33.1435 12.0362 33.0568C11.9567 32.9701 11.9048 32.8618 11.8869 32.7456C11.869 32.6294 11.8861 32.5104 11.9359 32.4039C11.9658 32.3395 11.9897 32.2724 12.0071 32.2035L15.3989 19.2969C15.4608 19.0557 15.4453 18.8012 15.3546 18.5693C15.2639 18.3374 15.1027 18.1399 14.8936 18.0047C14.6845 17.8695 14.4383 17.8034 14.1896 17.8158C13.9409 17.8282 13.7024 17.9184 13.5079 18.0738L8.23535 22.3013C8.20121 22.328 8.17004 22.3577 8.13887 22.3873C8.08433 22.4448 8.01883 22.4909 7.94624 22.5226C7.87364 22.5544 7.79542 22.5714 7.71618 22.5725C7.63693 22.5735 7.55827 22.5588 7.48484 22.529C7.4114 22.4992 7.34467 22.455 7.28858 22.399C7.23249 22.343 7.18818 22.2763 7.15826 22.203C7.12833 22.1296 7.1134 22.0509 7.11435 21.9717C7.11529 21.8924 7.13209 21.8142 7.16375 21.7415C7.19542 21.6689 7.2413 21.6033 7.29871 21.5487C7.31652 21.5309 7.33285 21.5131 7.34918 21.4938L14.0764 13.8656C14.2993 13.613 14.5735 13.4108 14.8806 13.2724C15.1877 13.1339 15.5207 13.0624 15.8576 13.0625H22.1425C22.4793 13.0624 22.8124 13.1339 23.1195 13.2724C23.4266 13.4108 23.7007 13.613 23.9237 13.8656L30.6509 21.4938C30.6672 21.5131 30.6836 21.5309 30.7014 21.5487C30.8124 21.66 30.8748 21.8108 30.8748 21.968C30.8748 22.1252 30.8124 22.276 30.7014 22.3873Z" fill="black"/>
</svg>
